<svg xmlns="http://www.w3.org/2000/svg" viewBox="0 0 97.56 34.03"><path d="M231.32,98.24l.26.67c-1.46.67-3.11,1.37-5,2.08l-.51.2c.07-.46.15-1,.23-1.68s.13-1,.18-1.41a10.4,10.4,0,0,0,.12-1.39c0-.81-.38-1.21-1.15-1.21a8.47,8.47,0,0,0-4.4,1.65q-3.41,2.19-3.41,5.09a1.33,1.33,0,0,0,.9,1.38,14,14,0,0,0,3.86.33h.26c0-.43.06-.72.06-.88a8.33,8.33,0,0,0-.48-2.95c1.32.32,2,1.48,2,3.49V104l3.11-.06a10.38,10.38,0,0,1,3.06.31,4.17,4.17,0,0,1,2.95,4.33,13.25,13.25,0,0,1-3.29,8.44,12,12,0,0,1-9.57,4.82,7,7,0,0,1-6.31-3.35,19.26,19.26,0,0,1-10.41,3.09,15.85,15.85,0,0,1-7.69-1.9q-6.75-3.73-6.76-12.73a14.12,14.12,0,0,1,3-9.36,9.62,9.62,0,0,1,7.75-3.64A11.46,11.46,0,0,1,208,96.85a12.32,12.32,0,0,1,3,4,51.1,51.1,0,0,1,2.58,7.51l1,3.56a34.34,34.34,0,0,0,1.47,4.39A13,13,0,0,0,220,112a15.71,15.71,0,0,0,2.43-5.67l-.91,0a14,14,0,0,1-4.67-.54,1.92,1.92,0,0,1-1.36-1.89q0-2.19,2.4-5a14,14,0,0,1,4.54-3.52,25.64,25.64,0,0,1,6.76-2l.67-.12-.06.32c-.13.59-.23,1.12-.31,1.58l-.32,1.87a10.43,10.43,0,0,0-.14,1.15q0,.57.48.57a1.77,1.77,0,0,0,.69-.14Zm-17.45,19.48a25.69,25.69,0,0,1-1.4-3.76l-1.59-5.83q-1.87-7-4.54-10.1a8.31,8.31,0,0,0-6.62-3.14,8,8,0,0,0-6.47,2.77c-1.55,1.85-2.33,4.42-2.33,7.69a15.19,15.19,0,0,0,.94,5.18,15,15,0,0,0,2.55,4.54,14.2,14.2,0,0,0,4.89,3.76,14,14,0,0,0,6,1.35A17.15,17.15,0,0,0,213.87,117.72Zm10-11.4a16.94,16.94,0,0,1-2.8,5.81,20.06,20.06,0,0,1-4.76,4.9,7.34,7.34,0,0,0,2.14,2.92,5.06,5.06,0,0,0,3.06.85,9,9,0,0,0,6.77-3.16,10.29,10.29,0,0,0,2.94-7.23,3.59,3.59,0,0,0-1.28-3.18c-.85-.59-2.38-.89-4.59-.89h-1Z" transform="translate(-189.35 -93.34)" fill="currentColor"/><path d="M240.68,120l.21.29a20.88,20.88,0,0,1-2.88,1.24l-.28.1c.08-1.18.9-3.42,2.44-6.73a3,3,0,0,0,.37-1c0-.23-.09-.35-.26-.35a2.35,2.35,0,0,0-1.05.59,11.6,11.6,0,0,0-1.45,1.38,24.69,24.69,0,0,0-2.12,2.77,17.77,17.77,0,0,0-1.57,2.77,4.5,4.5,0,0,0-1.47.45l.12-.29c.52-1.2,1-2.36,1.43-3.48l1.33-3.38,1.34-3.36a13.15,13.15,0,0,0,1-3.06q0-.39-.36-.39a2.32,2.32,0,0,0-.67.17l-.15,0-.11-.33a15.88,15.88,0,0,0,2.7-1.19l.22-.12c0,.14,0,.25,0,.32a8.31,8.31,0,0,1-.57,2.47c-.37,1.09-1.13,3-2.26,5.72l-1.22,2.95-.14.32.19-.24q4.33-5.37,6.2-5.37a.48.48,0,0,1,.54.55,3.57,3.57,0,0,1-.41,1.29l-.7,1.55a23,23,0,0,0-1.78,4.54c0,.17.09.25.26.25a2.61,2.61,0,0,0,1-.38Z" transform="translate(-189.35 -93.34)" fill="currentColor"/><path d="M249.35,119.9l.2.29a8.85,8.85,0,0,1-3.25,1.4,13.21,13.21,0,0,1,1.35-3.94,17.76,17.76,0,0,1-3,2.86,4.76,4.76,0,0,1-2.45,1.13c-.53,0-.79-.34-.79-1a6.24,6.24,0,0,1,1.53-3.7,12.46,12.46,0,0,1,3.84-3.27A10.53,10.53,0,0,1,252,112.2c.25,0,.37.09.37.28a2.61,2.61,0,0,1-.34.86,8.73,8.73,0,0,0-1.5-.14,7.83,7.83,0,0,0-5.94,2.69,5.78,5.78,0,0,0-1.84,3.9c0,.61.22.91.67.91a3,3,0,0,0,1.63-1,11.74,11.74,0,0,0,1.9-2.27,11.2,11.2,0,0,0,1.58-3.72,1.18,1.18,0,0,1,.48,1.09,4.38,4.38,0,0,1-1.11,2.53,5.84,5.84,0,0,0,1.35-.32l-.09.19A13.22,13.22,0,0,0,248,120c0,.22.1.32.3.31A3.22,3.22,0,0,0,249.35,119.9Z" transform="translate(-189.35 -93.34)" fill="currentColor"/><path d="M262.25,106.1a15,15,0,0,1-1.06,3.32l-.84,2.1-.33.82a1.18,1.18,0,0,1,.74,1.11,3.93,3.93,0,0,0-1.09-.19l-.08.2-1.46,3.72a17.69,17.69,0,0,0-1,2.95c0,.21.1.32.3.32a2.53,2.53,0,0,0,1-.44l.11-.07.22.27a11.71,11.71,0,0,1-3.43,1.48l.1-.38a30,30,0,0,1,1.18-3.4c.18-.41.34-.8.48-1.16l1.27-3.31.11-.25a6.46,6.46,0,0,0-2.64.65,8.78,8.78,0,0,0-2.48,1.69,5.81,5.81,0,0,0-2,4.08c0,.64.23,1,.7,1a2.87,2.87,0,0,0,1.73-.95,9.72,9.72,0,0,0,1.83-2.31,13.29,13.29,0,0,0,1.22-2.89,2.11,2.11,0,0,1,.19.9,4.21,4.21,0,0,1-.81,2.19,11.4,11.4,0,0,1-2.17,2.41c-1.35,1.15-2.4,1.72-3.16,1.72-.57,0-.86-.36-.86-1.08a5.09,5.09,0,0,1,.61-2.16,10,10,0,0,1,1.61-2.33,11.25,11.25,0,0,1,6.56-3.73l.31-.78.81-2.14a4.77,4.77,0,0,0,.38-1.27c0-.33-.15-.49-.49-.49a1.73,1.73,0,0,0-.66.15l-.13-.34.18-.07A26.8,26.8,0,0,0,262.25,106.1Z" transform="translate(-189.35 -93.34)" fill="currentColor"/><path d="M271.3,106.1a15,15,0,0,1-1.06,3.32l-.84,2.1-.33.82a1.18,1.18,0,0,1,.74,1.11,3.93,3.93,0,0,0-1.09-.19l-.08.2-1.46,3.72a17.69,17.69,0,0,0-1,2.95.28.28,0,0,0,.31.32,2.56,2.56,0,0,0,1-.44l.11-.07.22.27a11.76,11.76,0,0,1-3.42,1.48l.09-.38a28.49,28.49,0,0,1,1.19-3.4c.17-.41.33-.8.47-1.16l1.27-3.31.11-.25a6.46,6.46,0,0,0-2.64.65,8.78,8.78,0,0,0-2.48,1.69,5.81,5.81,0,0,0-2,4.08c0,.64.23,1,.7,1a2.87,2.87,0,0,0,1.73-.95,9.72,9.72,0,0,0,1.83-2.31,13.29,13.29,0,0,0,1.22-2.89,2.11,2.11,0,0,1,.19.9,4.21,4.21,0,0,1-.81,2.19,11.61,11.61,0,0,1-2.16,2.41c-1.36,1.15-2.41,1.72-3.17,1.72-.57,0-.86-.36-.86-1.08a5.09,5.09,0,0,1,.61-2.16,10,10,0,0,1,1.61-2.33,11.25,11.25,0,0,1,6.56-3.73l.31-.78.81-2.14a4.77,4.77,0,0,0,.38-1.27c0-.33-.15-.49-.49-.49a1.77,1.77,0,0,0-.66.15l-.13-.34.18-.07A26.8,26.8,0,0,0,271.3,106.1Z" transform="translate(-189.35 -93.34)" fill="currentColor"/><path d="M276.15,119.9l.2.29a8.85,8.85,0,0,1-3.25,1.4,13.21,13.21,0,0,1,1.35-3.94,17.76,17.76,0,0,1-3,2.86,4.73,4.73,0,0,1-2.45,1.13c-.53,0-.79-.34-.79-1a6.24,6.24,0,0,1,1.53-3.7,12.46,12.46,0,0,1,3.84-3.27,10.57,10.57,0,0,1,5.19-1.46c.24,0,.36.09.36.28a2.39,2.39,0,0,1-.34.86,8.64,8.64,0,0,0-1.5-.14,7.83,7.83,0,0,0-5.94,2.69,5.78,5.78,0,0,0-1.84,3.9c0,.61.22.91.67.91a3,3,0,0,0,1.63-1,11.39,11.39,0,0,0,1.9-2.27,11.2,11.2,0,0,0,1.58-3.72,1.18,1.18,0,0,1,.49,1.09,4.38,4.38,0,0,1-1.11,2.53A5.9,5.9,0,0,0,276,117l-.09.19a13.89,13.89,0,0,0-1.07,2.82c0,.22.1.32.3.31A3.22,3.22,0,0,0,276.15,119.9Z" transform="translate(-189.35 -93.34)" fill="currentColor"/><path d="M280.92,112.45a3.19,3.19,0,0,1,.18,1.15,17.2,17.2,0,0,1-.66,4,24.85,24.85,0,0,1,3.34-3.69,4.46,4.46,0,0,1,2.48-1.33c.43,0,.65.37.65,1.1q0,2.79-3.26,6.27a12.72,12.72,0,0,1-2.79,2.33,8.71,8.71,0,0,1-3,1,5.24,5.24,0,0,0-2.11.68,1.45,1.45,0,0,0-.64,1.26,1.13,1.13,0,0,0,.62,1,3,3,0,0,0,1.6.38,4.25,4.25,0,0,0,2.22-.6c-.17.94-.91,1.41-2.21,1.41a3.06,3.06,0,0,1-1.9-.55,1.73,1.73,0,0,1-.74-1.44,3.63,3.63,0,0,1,1.1-2.34,2.81,2.81,0,0,1,1.14-.79,11.44,11.44,0,0,1,2.27-.38,5.53,5.53,0,0,0,2.41-.74,8.38,8.38,0,0,0,2.49-2.44,9,9,0,0,0,1-2,5.42,5.42,0,0,0,.41-1.82c0-.62-.21-.93-.62-.93-.71,0-1.68.76-2.93,2.26a23.71,23.71,0,0,0-3.21,5.16l-.1.22h-.4l.11-.43a27.68,27.68,0,0,0,1.29-6.56c0-.48-.15-.71-.46-.71a1.62,1.62,0,0,0-.52.12l-.16.06-.1-.34.17-.09,1.06-.52,1.09-.6Z" transform="translate(-189.35 -93.34)" fill="currentColor"/></svg>